<svg width="267" height="267" viewBox="0 0 267 267" fill="none" xmlns="http://www.w3.org/2000/svg">
<path d="M247.652 70.7616V55.8102H245.431V70.7616C244.794 71.0314 244.266 71.5247 243.938 72.157C243.611 72.7893 243.503 73.5212 243.634 74.2273C243.766 74.9335 244.128 75.5698 244.658 76.0273C245.188 76.4848 245.854 76.735 246.542 76.735C247.229 76.735 247.895 76.4848 248.425 76.0273C248.956 75.5698 249.317 74.9335 249.449 74.2273C249.58 73.5212 249.473 72.7893 249.145 72.157C248.817 71.5247 248.289 71.0314 247.652 70.7616Z" fill="#E6E6E6"/>
<path d="M252.835 221.649H237.656V28.687H231.733V221.649H216.554C214.756 221.649 212.974 222.02 211.313 222.74C209.651 223.461 208.141 224.517 206.869 225.848C205.597 227.179 204.588 228.76 203.899 230.499C203.211 232.239 202.857 234.103 202.857 235.986L266.533 235.986C266.533 234.103 266.178 232.239 265.49 230.499C264.802 228.76 263.793 227.179 262.521 225.848C261.249 224.517 259.739 223.461 258.077 222.74C256.415 222.02 254.634 221.649 252.835 221.649Z" fill="#E6E6E6"/>
<path d="M202.887 57.3601H266.502L262.612 6.46909C262.47 4.71426 261.705 3.07865 260.469 1.88404C259.233 0.689429 257.614 0.0222975 255.931 0.0138931H213.458C211.776 0.0222984 210.157 0.689429 208.921 1.88404C207.684 3.07865 206.92 4.71426 206.778 6.46909L202.887 57.3601Z" fill="#6C63FF"/>
<path d="M22.6862 177.297H216.853V156.549C216.853 100.521 173.302 54.9384 119.77 54.9384C66.2378 54.9384 22.6862 100.521 22.6862 156.549V177.297Z" fill="#3F3D56"/>
<path opacity="0.2" d="M22.6862 177.297H216.853V156.549C216.853 100.521 173.302 54.9384 119.77 54.9384C66.2378 54.9384 22.6862 100.521 22.6862 156.549V177.297Z" fill="black"/>
<path d="M47.851 184.479H197.28C197.138 176.251 193.917 168.409 188.31 162.64C182.703 156.87 175.158 153.633 167.295 153.623H77.8356C69.9727 153.633 62.4271 156.87 56.8202 162.64C51.2134 168.409 47.9929 176.251 47.851 184.479Z" fill="#6C63FF"/>
<path d="M30.0563 181.287C46.6189 181.287 60.0455 167.234 60.0455 149.899C60.0455 132.564 46.6189 118.512 30.0563 118.512C13.4937 118.512 0.0671387 132.564 0.0671387 149.899C0.0671387 167.234 13.4937 181.287 30.0563 181.287Z" fill="#3F3D56"/>
<path d="M212.024 181.287C228.587 181.287 242.014 167.234 242.014 149.899C242.014 132.564 228.587 118.512 212.024 118.512C195.462 118.512 182.035 132.564 182.035 149.899C182.035 167.234 195.462 181.287 212.024 181.287Z" fill="#3F3D56"/>
<path d="M189.406 165.859V177.563H50.8962V165.859H19.8905V222.904C19.8905 226.399 21.2171 229.751 23.5784 232.223C25.9397 234.694 29.1423 236.083 32.4817 236.083H207.82C209.473 236.083 211.111 235.742 212.638 235.079C214.166 234.417 215.554 233.446 216.723 232.223C217.893 230.999 218.82 229.546 219.453 227.947C220.086 226.348 220.411 224.635 220.411 222.904V165.859H189.406Z" fill="#3F3D56"/>
<path opacity="0.2" d="M30.0564 156.283C33.4251 156.283 36.1559 153.425 36.1559 149.899C36.1559 146.374 33.4251 143.515 30.0564 143.515C26.6877 143.515 23.9569 146.374 23.9569 149.899C23.9569 153.425 26.6877 156.283 30.0564 156.283Z" fill="black"/>
<path opacity="0.2" d="M212.024 156.283C215.393 156.283 218.124 153.425 218.124 149.899C218.124 146.374 215.393 143.515 212.024 143.515C208.656 143.515 205.925 146.374 205.925 149.899C205.925 153.425 208.656 156.283 212.024 156.283Z" fill="black"/>
<path d="M130.817 51.3529C130.817 51.3529 131.417 63.2772 135.614 65.7876C139.812 68.298 135.614 85.2432 135.614 85.2432L115.826 85.8708L114.627 65.7876C114.627 65.7876 117.025 57.6289 115.826 53.8633C114.627 50.0977 130.817 51.3529 130.817 51.3529Z" fill="#FFB8B8"/>
<path d="M153.003 217.039L145.808 225.825L157.201 237.122L163.197 224.57L153.003 217.039Z" fill="#FFB8B8"/>
<path d="M102.034 217.039L109.23 225.825L97.837 237.122L91.8407 224.57L102.034 217.039Z" fill="#FFB8B8"/>
<path d="M149.106 133.882C149.106 133.882 192.28 148.945 189.881 163.379C187.483 177.814 168.894 228.65 168.894 228.65C168.894 228.65 158.7 228.65 150.905 217.353L156.302 204.801C156.302 204.801 153.903 197.897 158.1 196.642C162.298 195.387 164.696 173.421 164.696 173.421C164.696 173.421 134.115 170.91 127.519 158.986L115.526 128.861L149.106 133.882Z" fill="#2F2E41"/>
<path d="M105.932 133.882C105.932 133.882 62.7584 148.945 65.1569 163.379C67.5554 177.814 86.1442 228.65 86.1442 228.65C86.1442 228.65 96.338 228.65 104.133 217.353L98.7365 204.801C98.7365 204.801 101.135 197.897 96.9376 196.642C92.7401 195.387 90.3416 173.421 90.3416 173.421C90.3416 173.421 120.923 170.91 127.519 158.986L139.512 128.861L105.932 133.882Z" fill="#2F2E41"/>
<path d="M155.102 232.415C155.102 232.415 161.099 226.767 161.698 231.16C162.298 235.553 161.099 253.126 161.099 253.126C161.099 253.126 167.095 266.306 158.1 266.306C149.106 266.306 144.908 256.264 146.108 246.222C147.307 236.181 141.91 232.415 141.91 232.415C141.91 232.415 135.314 218.608 141.91 217.353C148.506 216.098 150.905 219.236 150.905 219.236C150.905 219.236 148.506 230.532 155.102 232.415Z" fill="#2F2E41"/>
<path d="M99.9358 232.415C99.9358 232.415 93.9394 226.767 93.3398 231.16C92.7402 235.553 93.9394 253.126 93.9394 253.126C93.9394 253.126 87.9431 266.306 96.9376 266.306C105.932 266.306 110.13 256.264 108.93 246.222C107.731 236.181 113.128 232.415 113.128 232.415C113.128 232.415 119.724 218.608 113.128 217.353C106.532 216.098 104.133 219.236 104.133 219.236C104.133 219.236 106.532 230.532 99.9358 232.415Z" fill="#2F2E41"/>
<path d="M121.523 58.5703C129.14 58.5703 135.314 52.1076 135.314 44.1355C135.314 36.1634 129.14 29.7007 121.523 29.7007C113.906 29.7007 107.731 36.1634 107.731 44.1355C107.731 52.1076 113.906 58.5703 121.523 58.5703Z" fill="#FFB8B8"/>
<path d="M123.621 68.9256L115.227 62.022L94.8389 72.0636L94.2393 129.175C94.2393 129.175 81.6469 135.451 85.2447 143.61C85.2447 143.61 96.0382 146.12 100.835 151.141C105.632 156.162 132.616 149.258 144.009 145.493C155.402 141.727 158.4 137.334 158.4 137.334L147.007 120.389L153.603 77.0844L133.218 62.7397L123.621 68.9256Z" fill="#E6E6E6"/>
<path d="M138.29 34.3108C137.989 33.8841 137.715 33.438 137.468 32.9752C137.04 31.8852 137.715 30.6005 137.084 29.5826C136.44 28.5435 134.804 28.3244 133.691 27.6184C131.977 26.531 131.665 24.3971 130.059 23.1987C128.902 22.3353 127.251 22.1025 125.705 22.1518C124.158 22.201 122.632 22.4937 121.085 22.5258C118.997 22.5746 116.925 22.1311 115.022 21.2281L116.164 23.5649C114.895 23.2756 113.684 22.7615 112.581 22.0449C112.076 22.7003 112.999 23.695 112.427 24.3097C112.192 24.508 111.914 24.6428 111.618 24.7021C109.417 25.3569 107.344 26.4154 105.496 27.8284C105.068 28.1132 104.714 28.5042 104.465 28.9667C104.168 29.6568 104.432 30.4189 104.409 31.1526C104.368 32.4858 103.396 33.6484 102.706 34.8493C102.016 36.0503 101.643 37.6074 102.667 38.6267C102.916 38.8338 103.154 39.0541 103.382 39.2867C104.407 40.5527 102.592 42.4066 103.467 43.75C103.847 44.3333 104.625 44.6285 105.302 44.9731C106.598 45.6074 107.689 46.6247 108.439 47.8996L107.913 43.8589C107.886 43.7591 107.881 43.6538 107.899 43.5516C107.917 43.4494 107.958 43.3531 108.018 43.2703C108.273 42.9986 108.806 43.1069 109.158 42.927C109.545 42.7289 109.574 42.2747 109.559 41.8942L109.44 38.9606C109.387 37.6414 109.372 37.4662 110.301 36.4014C110.949 35.6575 111.969 35.2086 112.994 34.8785C115.336 34.1242 117.854 33.8633 120.344 33.6083C123.235 33.3122 126.49 31.844 128.735 33.4028C130.573 34.6789 131.184 36.7763 132.069 38.6364C132.865 40.3084 134.908 45.2313 136.609 42.5665C137.677 40.893 139.31 36.1741 138.29 34.3108Z" fill="#2F2E41"/>
<path d="M123.89 39.9481C123.834 39.9482 123.779 39.9718 123.739 40.0139C123.699 40.0559 123.676 40.1129 123.676 40.1723V46.2158C123.676 46.2753 123.699 46.3323 123.739 46.3743C123.779 46.4164 123.834 46.44 123.89 46.44H133.83C133.887 46.44 133.942 46.4164 133.982 46.3743C134.022 46.3323 134.045 46.2753 134.045 46.2158V40.1723C134.045 40.1129 134.022 40.0559 133.982 40.0139C133.942 39.9718 133.887 39.9482 133.83 39.9481L123.89 39.9481Z" fill="#3F3D56"/>
<path d="M125.001 40.4811C124.895 40.4812 124.794 40.5253 124.719 40.6037C124.644 40.682 124.602 40.7882 124.602 40.899V45.4891C124.602 45.5999 124.644 45.7062 124.719 45.7845C124.794 45.8629 124.895 45.9069 125.001 45.9071H132.719C132.825 45.9069 132.927 45.8629 133.002 45.7845C133.077 45.7062 133.119 45.5999 133.119 45.4891V40.899C133.119 40.7882 133.077 40.682 133.002 40.6037C132.927 40.5253 132.825 40.4812 132.719 40.4811H125.001Z" fill="#FF6584"/>
<path d="M124.002 41.9389H118.824V43.1941H124.002V41.9389Z" fill="#3F3D56"/>
<path d="M109.815 39.9481C109.758 39.9482 109.703 39.9719 109.663 40.0139C109.623 40.0559 109.6 40.1129 109.6 40.1723V46.2158C109.6 46.2753 109.623 46.3323 109.663 46.3743C109.703 46.4163 109.758 46.4399 109.815 46.44H119.755C119.812 46.4399 119.866 46.4163 119.906 46.3743C119.946 46.3323 119.969 46.2753 119.969 46.2158V40.1723C119.969 40.1129 119.946 40.0559 119.906 40.0139C119.866 39.9719 119.812 39.9482 119.755 39.9481L109.815 39.9481Z" fill="#3F3D56"/>
<path d="M110.926 40.4811C110.82 40.4812 110.718 40.5253 110.643 40.6036C110.568 40.682 110.526 40.7882 110.526 40.899V45.4891C110.526 45.6 110.568 45.7062 110.643 45.7846C110.718 45.8629 110.82 45.907 110.926 45.9071H118.644C118.75 45.907 118.851 45.8629 118.926 45.7846C119.001 45.7062 119.043 45.6 119.043 45.4891V40.899C119.043 40.7882 119.001 40.682 118.926 40.6036C118.851 40.5253 118.75 40.4812 118.644 40.4811H110.926Z" fill="#6C63FF"/>
<path d="M104.381 115.384H138.81C140.185 115.384 141.503 115.956 142.475 116.973C143.447 117.99 143.993 119.37 143.993 120.809H99.198C99.198 119.37 99.7441 117.99 100.716 116.973C101.688 115.956 103.006 115.384 104.381 115.384Z" fill="#3F3D56"/>
<path d="M141.217 114.997C141.015 114.998 140.815 115.033 140.625 115.102C140.559 114.827 140.4 114.587 140.177 114.426C139.954 114.265 139.682 114.196 139.413 114.231C139.144 114.265 138.897 114.402 138.718 114.614C138.538 114.827 138.44 115.101 138.44 115.384C138.44 115.39 138.442 115.396 138.442 115.401C138.303 115.415 138.166 115.445 138.033 115.49C137.996 115.333 137.927 115.187 137.833 115.059C137.738 114.932 137.62 114.826 137.484 114.749C137.84 114.543 138.122 114.221 138.285 113.832C138.494 113.853 138.704 113.829 138.902 113.76C139.101 113.691 139.283 113.579 139.437 113.431C139.592 113.283 139.715 113.103 139.798 112.902C139.881 112.701 139.923 112.484 139.921 112.265C139.919 112.047 139.873 111.831 139.785 111.632C139.698 111.433 139.572 111.255 139.415 111.111C139.257 110.966 139.073 110.858 138.873 110.793C138.673 110.729 138.463 110.709 138.255 110.735C138.054 110.736 137.854 110.771 137.663 110.84C137.629 110.688 137.566 110.544 137.477 110.418C137.388 110.292 137.276 110.186 137.147 110.107C137.018 110.027 136.876 109.976 136.727 109.956C136.579 109.936 136.428 109.948 136.284 109.99C136.14 110.033 136.006 110.105 135.89 110.204C135.774 110.302 135.677 110.424 135.607 110.562C135.537 110.701 135.495 110.852 135.482 111.008C135.47 111.164 135.488 111.321 135.535 111.47C135.49 111.502 135.449 111.538 135.408 111.574C135.198 111.386 134.926 111.291 134.651 111.311C134.508 110.883 134.227 110.521 133.855 110.288C133.483 110.056 133.045 109.968 132.618 110.04C132.19 110.111 131.801 110.338 131.517 110.68C131.233 111.023 131.074 111.458 131.066 111.911C130.917 111.924 130.771 111.954 130.629 112.003C130.613 111.937 130.592 111.873 130.565 111.811C130.711 111.676 130.829 111.511 130.91 111.325C130.991 111.14 131.034 110.939 131.036 110.735C131.01 110.298 130.82 109.891 130.508 109.6C130.196 109.31 129.787 109.161 129.37 109.185C129.169 109.186 128.969 109.221 128.778 109.29C128.744 109.138 128.681 108.994 128.592 108.868C128.503 108.742 128.391 108.636 128.262 108.557C128.133 108.477 127.99 108.426 127.842 108.406C127.694 108.386 127.543 108.398 127.399 108.44C127.255 108.483 127.121 108.555 127.005 108.654C126.889 108.752 126.792 108.874 126.722 109.012C126.652 109.151 126.61 109.302 126.597 109.458C126.585 109.614 126.603 109.771 126.65 109.92C126.417 110.089 126.224 110.313 126.087 110.573C125.95 110.833 125.871 111.122 125.858 111.419C125.843 111.434 125.825 111.445 125.81 111.461C125.838 111.35 125.852 111.236 125.853 111.122C125.827 110.686 125.637 110.278 125.325 109.988C125.013 109.697 124.604 109.548 124.187 109.572C123.986 109.573 123.786 109.609 123.595 109.678C123.561 109.525 123.498 109.382 123.409 109.256C123.32 109.13 123.208 109.024 123.079 108.944C122.95 108.865 122.808 108.814 122.659 108.794C122.511 108.774 122.36 108.785 122.216 108.828C122.072 108.87 121.938 108.943 121.822 109.041C121.706 109.14 121.609 109.262 121.539 109.4C121.469 109.538 121.427 109.69 121.414 109.846C121.402 110.002 121.42 110.159 121.467 110.307C121.221 110.485 121.02 110.723 120.881 111C120.743 111.276 120.67 111.584 120.67 111.897C120.67 112.21 120.743 112.518 120.881 112.795C121.02 113.071 121.221 113.309 121.467 113.487C121.392 113.712 121.392 113.957 121.467 114.182C121.281 114.318 121.121 114.487 120.993 114.683C120.925 114.422 120.771 114.196 120.559 114.041C120.348 113.887 120.091 113.815 119.834 113.839C119.577 113.862 119.336 113.979 119.153 114.169C118.969 114.358 118.855 114.61 118.831 114.878C118.682 114.787 118.522 114.719 118.355 114.677C118.654 114.47 118.891 114.176 119.034 113.832C119.243 113.853 119.453 113.829 119.651 113.76C119.85 113.691 120.032 113.579 120.186 113.431C120.341 113.283 120.464 113.103 120.547 112.902C120.63 112.701 120.672 112.484 120.67 112.265C120.668 112.047 120.622 111.831 120.534 111.632C120.447 111.433 120.321 111.255 120.164 111.111C120.007 110.966 119.822 110.858 119.622 110.793C119.422 110.729 119.212 110.709 119.004 110.735C118.803 110.736 118.603 110.771 118.412 110.84C118.378 110.688 118.315 110.544 118.226 110.418C118.137 110.292 118.025 110.186 117.896 110.107C117.767 110.027 117.625 109.976 117.476 109.956C117.328 109.936 117.177 109.948 117.033 109.99C116.889 110.033 116.755 110.105 116.639 110.204C116.523 110.302 116.427 110.424 116.356 110.562C116.286 110.701 116.244 110.852 116.231 111.008C116.219 111.164 116.237 111.321 116.284 111.47C116.26 111.487 116.239 111.507 116.216 111.526C116.158 111.52 116.102 111.51 116.043 111.51C115.841 111.511 115.641 111.546 115.45 111.615C115.443 111.586 115.432 111.559 115.423 111.53C115.459 111.358 115.456 111.179 115.415 111.008C115.373 110.837 115.295 110.678 115.185 110.544C115.075 110.41 114.937 110.305 114.781 110.236C114.626 110.167 114.458 110.137 114.289 110.148C114.193 109.867 114.036 109.613 113.83 109.406C113.624 109.2 113.376 109.045 113.104 108.956C112.831 108.866 112.543 108.844 112.261 108.89C111.98 108.937 111.712 109.051 111.479 109.223C111.247 109.396 111.055 109.623 110.92 109.885C110.785 110.148 110.71 110.44 110.7 110.739C110.691 111.037 110.748 111.334 110.866 111.605C110.985 111.877 111.161 112.116 111.383 112.305C111.255 112.32 111.13 112.348 111.008 112.39C110.964 112.201 110.875 112.027 110.75 111.884C110.625 111.74 110.467 111.632 110.291 111.57C110.115 111.508 109.926 111.493 109.744 111.528C109.561 111.562 109.389 111.644 109.245 111.767C109.08 111.562 108.874 111.398 108.641 111.286C108.408 111.175 108.154 111.119 107.898 111.122C107.696 111.123 107.496 111.159 107.306 111.228C107.272 111.075 107.208 110.932 107.12 110.806C107.031 110.68 106.919 110.574 106.79 110.494C106.661 110.415 106.518 110.364 106.37 110.343C106.222 110.323 106.071 110.335 105.927 110.378C105.783 110.42 105.649 110.493 105.533 110.591C105.416 110.69 105.32 110.812 105.25 110.95C105.18 111.088 105.138 111.24 105.125 111.396C105.113 111.552 105.13 111.709 105.178 111.857C104.932 112.035 104.731 112.273 104.592 112.549C104.453 112.826 104.381 113.134 104.381 113.447C104.381 113.453 104.383 113.458 104.383 113.464C104.12 113.423 103.852 113.453 103.604 113.552C103.57 113.4 103.506 113.257 103.418 113.131C103.329 113.004 103.217 112.899 103.088 112.819C102.959 112.74 102.816 112.688 102.668 112.668C102.52 112.648 102.369 112.66 102.225 112.702C102.081 112.745 101.947 112.818 101.831 112.916C101.714 113.014 101.618 113.136 101.548 113.275C101.478 113.413 101.435 113.565 101.423 113.721C101.41 113.877 101.428 114.034 101.475 114.182C101.118 114.435 100.857 114.811 100.738 115.245C100.618 115.678 100.648 116.142 100.821 116.555C100.994 116.968 101.3 117.305 101.686 117.506C102.072 117.708 102.513 117.761 102.932 117.658C102.999 118.062 103.187 118.433 103.469 118.718C103.752 119.003 104.113 119.186 104.502 119.242C104.89 119.297 105.285 119.221 105.63 119.025C105.974 118.83 106.25 118.524 106.418 118.153C107.751 118.335 109.104 118.271 110.417 117.965C110.539 118.332 110.764 118.651 111.063 118.882C111.362 119.113 111.721 119.244 112.092 119.258C112.463 119.272 112.83 119.168 113.144 118.96C113.458 118.753 113.704 118.451 113.852 118.094C114.121 118.088 114.387 118.02 114.628 117.893C114.797 118.205 115.046 118.462 115.347 118.635C115.648 118.807 115.989 118.888 116.331 118.869C116.674 118.849 117.004 118.73 117.286 118.525C117.567 118.32 117.788 118.036 117.924 117.706C118.336 117.625 118.762 117.696 119.128 117.909C119.495 118.122 119.778 118.463 119.93 118.872C120.177 118.517 120.496 118.223 120.863 118.01C121.23 117.797 121.637 117.671 122.056 117.64C122.428 117.748 122.824 117.729 123.184 117.585C123.545 117.441 123.852 117.179 124.061 116.839C123.944 117.311 124.002 117.811 124.223 118.24C124.443 118.669 124.81 118.996 125.251 119.154C125.691 119.312 126.172 119.291 126.598 119.095C127.024 118.898 127.364 118.541 127.549 118.094C127.819 118.088 128.084 118.02 128.326 117.893C128.495 118.205 128.744 118.462 129.045 118.635C129.345 118.807 129.686 118.888 130.029 118.869C130.371 118.849 130.702 118.73 130.983 118.525C131.265 118.32 131.486 118.036 131.622 117.706C131.892 117.701 132.157 117.632 132.398 117.505C132.528 117.748 132.707 117.958 132.923 118.121C133.139 118.284 133.386 118.396 133.647 118.449C133.908 118.502 134.177 118.495 134.435 118.428C134.694 118.361 134.935 118.236 135.142 118.062C135.207 118.433 135.373 118.775 135.621 119.048C135.87 119.321 136.189 119.512 136.539 119.597C136.89 119.682 137.257 119.658 137.594 119.527C137.932 119.397 138.226 119.165 138.439 118.862C138.662 119.04 138.92 119.163 139.194 119.221C139.468 119.279 139.752 119.271 140.023 119.197C140.294 119.122 140.545 118.985 140.757 118.793C140.969 118.602 141.137 118.363 141.247 118.094C141.455 118.115 141.665 118.091 141.864 118.022C142.062 117.953 142.245 117.841 142.399 117.693C142.553 117.545 142.676 117.365 142.759 117.164C142.843 116.963 142.885 116.747 142.883 116.528C142.88 116.309 142.834 116.093 142.747 115.894C142.66 115.695 142.533 115.517 142.376 115.373C142.219 115.228 142.035 115.12 141.835 115.056C141.635 114.991 141.424 114.971 141.217 114.997ZM108.128 114.197C108.126 114.207 108.125 114.216 108.123 114.226C108.109 114.225 108.097 114.222 108.083 114.222C108.028 114.223 107.973 114.229 107.918 114.239C107.921 114.232 107.925 114.226 107.928 114.219C107.995 114.216 108.062 114.208 108.128 114.197ZM123.595 113.552C123.59 113.53 123.58 113.509 123.574 113.487C123.857 113.282 124.079 112.999 124.217 112.669C124.461 112.668 124.701 112.613 124.923 112.508C125.145 112.403 125.343 112.25 125.505 112.059C125.49 112.133 125.483 112.209 125.483 112.285C125.484 112.403 125.503 112.52 125.539 112.632C125.221 112.864 124.981 113.194 124.851 113.577C124.448 113.412 124.003 113.404 123.595 113.552ZM134.683 113.697C134.682 113.673 134.685 113.649 134.684 113.625C134.731 113.625 134.778 113.622 134.825 113.615C134.897 113.866 135.017 114.099 135.177 114.299C135.142 114.309 135.106 114.315 135.072 114.327C135.012 114.078 134.875 113.857 134.683 113.697Z" fill="#F9A825"/>
<path d="M102.927 117.322C102.402 117.322 101.882 117.434 101.4 117.651C100.918 117.868 100.483 118.186 100.121 118.584C99.7601 118.983 99.4803 119.455 99.2991 119.971C99.1178 120.487 99.0389 121.036 99.0671 121.585L101.574 157.664C101.627 158.699 102.057 159.672 102.775 160.384C103.493 161.097 104.445 161.494 105.434 161.494H137.757C138.747 161.494 139.698 161.097 140.417 160.384C141.135 159.672 141.564 158.699 141.617 157.664L144.124 121.585C144.152 121.036 144.074 120.487 143.892 119.971C143.711 119.455 143.431 118.983 143.07 118.584C142.709 118.186 142.274 117.868 141.791 117.651C141.309 117.434 140.789 117.322 140.264 117.322H102.927Z" fill="#3F3D56"/>
<path d="M106.972 117.322H104.751V161.494H106.972V117.322Z" fill="#6C63FF"/>
<path d="M113.266 117.322H111.045V161.494H113.266V117.322Z" fill="#6C63FF"/>
<path d="M119.56 117.322H117.338V161.494H119.56V117.322Z" fill="#6C63FF"/>
<path d="M125.853 117.322H123.632V161.494H125.853V117.322Z" fill="#6C63FF"/>
<path d="M132.147 117.322H129.925V161.494H132.147V117.322Z" fill="#6C63FF"/>
<path d="M138.44 117.322H136.219V161.494H138.44V117.322Z" fill="#6C63FF"/>
<path d="M136.214 139.217L129.018 143.61C129.018 143.61 111.629 158.672 123.621 161.183C135.614 163.693 138.612 150.513 138.612 150.513L142.81 145.493L136.214 139.217Z" fill="#FFB8B8"/>
<path d="M102.034 136.079L109.23 140.472C109.23 140.472 126.62 155.534 114.627 158.045C102.634 160.555 99.6359 147.376 99.6359 147.376L95.4385 142.355L102.034 136.079Z" fill="#FFB8B8"/>
<path d="M145.808 76.4568L153.603 77.0844C153.603 77.0844 159.6 82.7328 159 90.264C159 90.264 164.397 106.582 163.197 113.485C163.197 113.485 164.397 124.782 162.598 129.175C160.799 133.568 145.808 150.514 145.808 150.514C145.808 150.514 132.016 139.217 132.616 138.589L150.605 119.761L141.61 107.209L145.808 76.4568Z" fill="#E6E6E6"/>
<path d="M94.839 72.0636L94.5392 72.3774C94.5392 72.3774 81.0474 78.3396 81.647 85.8708C81.647 85.8708 76.2503 102.188 77.4496 109.092C77.4496 109.092 76.2503 120.389 78.0492 124.782C79.8481 129.175 94.839 146.12 94.839 146.12C94.839 146.12 108.631 134.824 108.031 134.196L90.0419 115.368L99.0365 102.816L94.839 72.0636Z" fill="#E6E6E6"/>
</svg>
